# xmcd CD database file
#
# Track frame offsets:
#	150
#	13905
#	29015
#	42792
#	57322
#	73712
#	88420
#	99795
#	115835
#	128195
#	142527
#	156795
#
# Disc length: 2281 seconds
#
# Revision: 0
# Processed by: cddbd v1.4PL0 Copyright (c) Steve Scherf et al.
# Submitted via: CDex 1.40Beta9
#
DISCID=9d08e70c
DTITLE=Joe Hodgkins - Es gibt immer einen Grund
DYEAR=1995
DGENRE=Country
TTITLE0=Es gibt immer einen Grund
TTITLE1=Wochenendfieber
TTITLE2=Portland daheim
TTITLE3=Komm zurück (Die Tür steht offen.)
TTITLE4=Skifahr'n
TTITLE5=Sie war so treu wie Gold
TTITLE6=Countrymusic made in Germany
TTITLE7=Littlesea
TTITLE8=Vergessen, vorbei und vorüber
TTITLE9=Das Leben genießen
TTITLE10=3-4-5 und Zusatzzahl
TTITLE11=Sieger, Verlierer
EXTD=YEAR: 1995 ID3G: 2
EXTT0=
EXTT1=
EXTT2=
EXTT3=
EXTT4=
EXTT5=
EXTT6=
EXTT7=
EXTT8=
EXTT9=
EXTT10=
EXTT11=
PLAYORDER=
